<mxfile host="app.diagrams.net" modified="2023-09-01T04:26:45.462Z" agent="Mozilla/5.0 (Macintosh; Intel Mac OS X 10_15_7) AppleWebKit/537.36 (KHTML, like Gecko) Chrome/116.0.0.0 Safari/537.36" etag="8KthAhgJIdXBJWpvvKa2" version="21.7.1" type="device">
  <diagram name="Page-1" id="3wRQnYbdYOkXf5iyZCq9">
    <mxGraphModel dx="1154" dy="764" grid="1" gridSize="10" guides="1" tooltips="1" connect="1" arrows="1" fold="1" page="1" pageScale="1" pageWidth="1100" pageHeight="850" background="#ffffff" math="0" shadow="0">
      <root>
        <mxCell id="0" />
        <mxCell id="1" parent="0" />
        <mxCell id="dikV59hCr1-30PdfAIN_-1" value="" style="sketch=0;outlineConnect=0;fontColor=#232F3E;gradientColor=none;fillColor=#232F3D;strokeColor=none;dashed=0;verticalLabelPosition=bottom;verticalAlign=top;align=center;html=1;fontSize=12;fontStyle=0;aspect=fixed;pointerEvents=1;shape=mxgraph.aws4.source_code;" parent="1" vertex="1">
          <mxGeometry x="391.73" y="60" width="73.08" height="100" as="geometry" />
        </mxCell>
        <mxCell id="dikV59hCr1-30PdfAIN_-2" value="" style="image;sketch=0;aspect=fixed;html=1;points=[];align=center;fontSize=12;image=img/lib/mscae/Person.svg;" parent="1" vertex="1">
          <mxGeometry x="110" y="250" width="37" height="50" as="geometry" />
        </mxCell>
        <mxCell id="dikV59hCr1-30PdfAIN_-3" value="" style="image;sketch=0;aspect=fixed;html=1;points=[];align=center;fontSize=12;image=img/lib/mscae/Person.svg;" parent="1" vertex="1">
          <mxGeometry x="367" y="450" width="37" height="50" as="geometry" />
        </mxCell>
        <mxCell id="dikV59hCr1-30PdfAIN_-4" value="" style="image;sketch=0;aspect=fixed;html=1;points=[];align=center;fontSize=12;image=img/lib/mscae/Person.svg;" parent="1" vertex="1">
          <mxGeometry x="143" y="408" width="37" height="50" as="geometry" />
        </mxCell>
        <mxCell id="dikV59hCr1-30PdfAIN_-5" value="" style="sketch=0;outlineConnect=0;fontColor=#232F3E;gradientColor=none;fillColor=#232F3D;strokeColor=none;dashed=0;verticalLabelPosition=bottom;verticalAlign=top;align=center;html=1;fontSize=12;fontStyle=0;aspect=fixed;pointerEvents=1;shape=mxgraph.aws4.source_code;" parent="1" vertex="1">
          <mxGeometry x="409" y="394" width="36.54" height="50" as="geometry" />
        </mxCell>
        <mxCell id="dikV59hCr1-30PdfAIN_-6" value="" style="sketch=0;outlineConnect=0;fontColor=#232F3E;gradientColor=none;fillColor=#232F3D;strokeColor=none;dashed=0;verticalLabelPosition=bottom;verticalAlign=top;align=center;html=1;fontSize=12;fontStyle=0;aspect=fixed;pointerEvents=1;shape=mxgraph.aws4.source_code;" parent="1" vertex="1">
          <mxGeometry x="185.73" y="352" width="36.54" height="50" as="geometry" />
        </mxCell>
        <mxCell id="dikV59hCr1-30PdfAIN_-7" value="" style="sketch=0;outlineConnect=0;fontColor=#232F3E;gradientColor=none;fillColor=#232F3D;strokeColor=none;dashed=0;verticalLabelPosition=bottom;verticalAlign=top;align=center;html=1;fontSize=12;fontStyle=0;aspect=fixed;pointerEvents=1;shape=mxgraph.aws4.source_code;" parent="1" vertex="1">
          <mxGeometry x="160" y="194.5" width="36.54" height="50" as="geometry" />
        </mxCell>
        <mxCell id="dikV59hCr1-30PdfAIN_-11" value="" style="sketch=0;outlineConnect=0;fontColor=#232F3E;gradientColor=none;fillColor=#232F3D;strokeColor=none;dashed=0;verticalLabelPosition=bottom;verticalAlign=top;align=center;html=1;fontSize=12;fontStyle=0;aspect=fixed;pointerEvents=1;shape=mxgraph.aws4.source_code;" parent="1" vertex="1">
          <mxGeometry x="345" y="150" width="21.92" height="30" as="geometry" />
        </mxCell>
        <mxCell id="dikV59hCr1-30PdfAIN_-12" value="" style="sketch=0;outlineConnect=0;fontColor=#232F3E;gradientColor=none;fillColor=#232F3D;strokeColor=none;dashed=0;verticalLabelPosition=bottom;verticalAlign=top;align=center;html=1;fontSize=12;fontStyle=0;aspect=fixed;pointerEvents=1;shape=mxgraph.aws4.source_code;" parent="1" vertex="1">
          <mxGeometry x="345" y="193" width="21.92" height="30" as="geometry" />
        </mxCell>
        <mxCell id="dikV59hCr1-30PdfAIN_-13" value="" style="sketch=0;outlineConnect=0;fontColor=#232F3E;gradientColor=none;fillColor=#232F3D;strokeColor=none;dashed=0;verticalLabelPosition=bottom;verticalAlign=top;align=center;html=1;fontSize=12;fontStyle=0;aspect=fixed;pointerEvents=1;shape=mxgraph.aws4.source_code;" parent="1" vertex="1">
          <mxGeometry x="381.54" y="193" width="21.92" height="30" as="geometry" />
        </mxCell>
        <mxCell id="dikV59hCr1-30PdfAIN_-14" value="" style="sketch=0;outlineConnect=0;fontColor=#232F3E;gradientColor=none;fillColor=#232F3D;strokeColor=none;dashed=0;verticalLabelPosition=bottom;verticalAlign=top;align=center;html=1;fontSize=12;fontStyle=0;aspect=fixed;pointerEvents=1;shape=mxgraph.aws4.source_code;" parent="1" vertex="1">
          <mxGeometry x="381.54" y="233" width="21.92" height="30" as="geometry" />
        </mxCell>
        <mxCell id="dikV59hCr1-30PdfAIN_-15" value="" style="sketch=0;outlineConnect=0;fontColor=#232F3E;gradientColor=none;fillColor=#232F3D;strokeColor=none;dashed=0;verticalLabelPosition=bottom;verticalAlign=top;align=center;html=1;fontSize=12;fontStyle=0;aspect=fixed;pointerEvents=1;shape=mxgraph.aws4.source_code;" parent="1" vertex="1">
          <mxGeometry x="345" y="233" width="21.92" height="30" as="geometry" />
        </mxCell>
        <mxCell id="dikV59hCr1-30PdfAIN_-16" value="" style="sketch=0;outlineConnect=0;fontColor=#232F3E;gradientColor=none;fillColor=#232F3D;strokeColor=none;dashed=0;verticalLabelPosition=bottom;verticalAlign=top;align=center;html=1;fontSize=12;fontStyle=0;aspect=fixed;pointerEvents=1;shape=mxgraph.aws4.source_code;" parent="1" vertex="1">
          <mxGeometry x="345" y="273" width="21.92" height="30" as="geometry" />
        </mxCell>
        <mxCell id="dikV59hCr1-30PdfAIN_-17" value="" style="endArrow=classic;html=1;rounded=0;endSize=2;" parent="1" source="dikV59hCr1-30PdfAIN_-11" target="dikV59hCr1-30PdfAIN_-12" edge="1">
          <mxGeometry width="50" height="50" relative="1" as="geometry">
            <mxPoint x="356" y="183" as="sourcePoint" />
            <mxPoint x="445" y="253" as="targetPoint" />
          </mxGeometry>
        </mxCell>
        <mxCell id="dikV59hCr1-30PdfAIN_-18" value="" style="endArrow=classic;html=1;rounded=0;endSize=2;" parent="1" edge="1">
          <mxGeometry width="50" height="50" relative="1" as="geometry">
            <mxPoint x="356" y="223" as="sourcePoint" />
            <mxPoint x="355.87" y="233" as="targetPoint" />
          </mxGeometry>
        </mxCell>
        <mxCell id="dikV59hCr1-30PdfAIN_-19" value="" style="endArrow=classic;html=1;rounded=0;endSize=2;" parent="1" edge="1">
          <mxGeometry width="50" height="50" relative="1" as="geometry">
            <mxPoint x="356" y="263" as="sourcePoint" />
            <mxPoint x="355.87" y="273" as="targetPoint" />
          </mxGeometry>
        </mxCell>
        <mxCell id="dikV59hCr1-30PdfAIN_-20" value="" style="endArrow=classic;html=1;rounded=0;endSize=2;" parent="1" source="dikV59hCr1-30PdfAIN_-14" target="dikV59hCr1-30PdfAIN_-16" edge="1">
          <mxGeometry width="50" height="50" relative="1" as="geometry">
            <mxPoint x="366" y="273" as="sourcePoint" />
            <mxPoint x="365.87" y="283" as="targetPoint" />
          </mxGeometry>
        </mxCell>
        <mxCell id="dikV59hCr1-30PdfAIN_-21" value="" style="endArrow=classic;html=1;rounded=0;endSize=2;" parent="1" source="dikV59hCr1-30PdfAIN_-12" target="dikV59hCr1-30PdfAIN_-13" edge="1">
          <mxGeometry width="50" height="50" relative="1" as="geometry">
            <mxPoint x="366" y="190" as="sourcePoint" />
            <mxPoint x="366" y="203" as="targetPoint" />
          </mxGeometry>
        </mxCell>
        <mxCell id="dikV59hCr1-30PdfAIN_-25" value="" style="endArrow=classic;html=1;rounded=0;endSize=2;" parent="1" source="dikV59hCr1-30PdfAIN_-13" target="dikV59hCr1-30PdfAIN_-14" edge="1">
          <mxGeometry width="50" height="50" relative="1" as="geometry">
            <mxPoint x="366" y="233" as="sourcePoint" />
            <mxPoint x="365.87" y="243" as="targetPoint" />
          </mxGeometry>
        </mxCell>
        <mxCell id="dikV59hCr1-30PdfAIN_-26" value="" style="html=1;verticalLabelPosition=bottom;align=center;labelBackgroundColor=#ffffff;verticalAlign=top;strokeWidth=2;strokeColor=#0080F0;shadow=0;dashed=0;shape=mxgraph.ios7.icons.monitor;" parent="1" vertex="1">
          <mxGeometry x="412" y="450" width="30" height="19.5" as="geometry" />
        </mxCell>
        <mxCell id="dikV59hCr1-30PdfAIN_-27" value="" style="html=1;verticalLabelPosition=bottom;align=center;labelBackgroundColor=#ffffff;verticalAlign=top;strokeWidth=2;strokeColor=#0080F0;shadow=0;dashed=0;shape=mxgraph.ios7.icons.monitor;" parent="1" vertex="1">
          <mxGeometry x="189" y="408" width="30" height="19.5" as="geometry" />
        </mxCell>
        <mxCell id="dikV59hCr1-30PdfAIN_-28" value="" style="html=1;verticalLabelPosition=bottom;align=center;labelBackgroundColor=#ffffff;verticalAlign=top;strokeWidth=2;strokeColor=#0080F0;shadow=0;dashed=0;shape=mxgraph.ios7.icons.monitor;" parent="1" vertex="1">
          <mxGeometry x="163" y="250.5" width="30" height="19.5" as="geometry" />
        </mxCell>
        <mxCell id="dikV59hCr1-30PdfAIN_-30" value="" style="endArrow=classic;html=1;rounded=0;" parent="1" source="dikV59hCr1-30PdfAIN_-13" target="dikV59hCr1-30PdfAIN_-5" edge="1">
          <mxGeometry width="50" height="50" relative="1" as="geometry">
            <mxPoint x="480" y="310" as="sourcePoint" />
            <mxPoint x="530" y="290" as="targetPoint" />
            <Array as="points">
              <mxPoint x="429" y="208" />
            </Array>
          </mxGeometry>
        </mxCell>
        <mxCell id="dikV59hCr1-30PdfAIN_-31" value="git branch" style="text;html=1;strokeColor=none;fillColor=none;align=center;verticalAlign=middle;whiteSpace=wrap;rounded=0;" parent="1" vertex="1">
          <mxGeometry x="430" y="257" width="60" height="30" as="geometry" />
        </mxCell>
        <mxCell id="dikV59hCr1-30PdfAIN_-32" value="" style="curved=1;endArrow=classic;html=1;rounded=0;" parent="1" edge="1">
          <mxGeometry width="50" height="50" relative="1" as="geometry">
            <mxPoint x="490" y="457" as="sourcePoint" />
            <mxPoint x="490" y="477" as="targetPoint" />
            <Array as="points">
              <mxPoint x="510" y="457" />
              <mxPoint x="510" y="477" />
              <mxPoint x="490" y="477" />
            </Array>
          </mxGeometry>
        </mxCell>
        <mxCell id="dikV59hCr1-30PdfAIN_-34" value="" style="sketch=0;outlineConnect=0;fontColor=#232F3E;gradientColor=none;fillColor=#232F3D;strokeColor=none;dashed=0;verticalLabelPosition=bottom;verticalAlign=top;align=center;html=1;fontSize=12;fontStyle=0;aspect=fixed;pointerEvents=1;shape=mxgraph.aws4.source_code;" parent="1" vertex="1">
          <mxGeometry x="464.81" y="430" width="21.92" height="30" as="geometry" />
        </mxCell>
        <mxCell id="dikV59hCr1-30PdfAIN_-35" value="" style="sketch=0;outlineConnect=0;fontColor=#232F3E;gradientColor=none;fillColor=#232F3D;strokeColor=none;dashed=0;verticalLabelPosition=bottom;verticalAlign=top;align=center;html=1;fontSize=12;fontStyle=0;aspect=fixed;pointerEvents=1;shape=mxgraph.aws4.source_code;" parent="1" vertex="1">
          <mxGeometry x="464.81" y="470" width="21.92" height="30" as="geometry" />
        </mxCell>
        <mxCell id="dikV59hCr1-30PdfAIN_-36" value="git commit" style="text;html=1;strokeColor=none;fillColor=none;align=center;verticalAlign=middle;whiteSpace=wrap;rounded=0;" parent="1" vertex="1">
          <mxGeometry x="500" y="428" width="60" height="30" as="geometry" />
        </mxCell>
        <mxCell id="dikV59hCr1-30PdfAIN_-37" value="" style="endArrow=classic;html=1;rounded=0;" parent="1" source="dikV59hCr1-30PdfAIN_-38" target="dikV59hCr1-30PdfAIN_-14" edge="1">
          <mxGeometry width="50" height="50" relative="1" as="geometry">
            <mxPoint x="320" y="360" as="sourcePoint" />
            <mxPoint x="370" y="310" as="targetPoint" />
          </mxGeometry>
        </mxCell>
        <mxCell id="dikV59hCr1-30PdfAIN_-40" value="Repository (github)" style="text;html=1;strokeColor=none;fillColor=none;align=center;verticalAlign=middle;whiteSpace=wrap;rounded=0;" parent="1" vertex="1">
          <mxGeometry x="397" y="20" width="60" height="30" as="geometry" />
        </mxCell>
        <mxCell id="dikV59hCr1-30PdfAIN_-41" value="" style="endArrow=classic;html=1;rounded=0;" parent="1" source="dikV59hCr1-30PdfAIN_-11" target="dikV59hCr1-30PdfAIN_-6" edge="1">
          <mxGeometry width="50" height="50" relative="1" as="geometry">
            <mxPoint x="240" y="280" as="sourcePoint" />
            <mxPoint x="230" y="310" as="targetPoint" />
          </mxGeometry>
        </mxCell>
        <mxCell id="dikV59hCr1-30PdfAIN_-42" value="git clone" style="text;html=1;strokeColor=none;fillColor=none;align=center;verticalAlign=middle;whiteSpace=wrap;rounded=0;" parent="1" vertex="1">
          <mxGeometry x="196" y="289" width="60" height="30" as="geometry" />
        </mxCell>
        <mxCell id="dikV59hCr1-30PdfAIN_-43" value="" style="curved=1;endArrow=classic;html=1;rounded=0;" parent="1" edge="1">
          <mxGeometry width="50" height="50" relative="1" as="geometry">
            <mxPoint x="265.19" y="418" as="sourcePoint" />
            <mxPoint x="265.19" y="438" as="targetPoint" />
            <Array as="points">
              <mxPoint x="285.19" y="418" />
              <mxPoint x="285.19" y="438" />
              <mxPoint x="265.19" y="438" />
            </Array>
          </mxGeometry>
        </mxCell>
        <mxCell id="dikV59hCr1-30PdfAIN_-44" value="" style="sketch=0;outlineConnect=0;fontColor=#232F3E;gradientColor=none;fillColor=#232F3D;strokeColor=none;dashed=0;verticalLabelPosition=bottom;verticalAlign=top;align=center;html=1;fontSize=12;fontStyle=0;aspect=fixed;pointerEvents=1;shape=mxgraph.aws4.source_code;" parent="1" vertex="1">
          <mxGeometry x="240" y="391" width="21.92" height="30" as="geometry" />
        </mxCell>
        <mxCell id="dikV59hCr1-30PdfAIN_-45" value="" style="sketch=0;outlineConnect=0;fontColor=#232F3E;gradientColor=none;fillColor=#232F3D;strokeColor=none;dashed=0;verticalLabelPosition=bottom;verticalAlign=top;align=center;html=1;fontSize=12;fontStyle=0;aspect=fixed;pointerEvents=1;shape=mxgraph.aws4.source_code;" parent="1" vertex="1">
          <mxGeometry x="240" y="431" width="21.92" height="30" as="geometry" />
        </mxCell>
        <mxCell id="dikV59hCr1-30PdfAIN_-46" value="git commit" style="text;html=1;strokeColor=none;fillColor=none;align=center;verticalAlign=middle;whiteSpace=wrap;rounded=0;" parent="1" vertex="1">
          <mxGeometry x="275.19" y="389" width="60" height="30" as="geometry" />
        </mxCell>
        <mxCell id="dikV59hCr1-30PdfAIN_-47" value="" style="endArrow=classic;html=1;rounded=0;" parent="1" source="dikV59hCr1-30PdfAIN_-6" target="dikV59hCr1-30PdfAIN_-15" edge="1">
          <mxGeometry width="50" height="50" relative="1" as="geometry">
            <mxPoint x="300" y="360" as="sourcePoint" />
            <mxPoint x="232" y="362" as="targetPoint" />
          </mxGeometry>
        </mxCell>
        <mxCell id="dikV59hCr1-30PdfAIN_-48" value="git push" style="text;html=1;strokeColor=none;fillColor=none;align=center;verticalAlign=middle;whiteSpace=wrap;rounded=0;" parent="1" vertex="1">
          <mxGeometry x="240" y="333" width="60" height="30" as="geometry" />
        </mxCell>
        <mxCell id="dikV59hCr1-30PdfAIN_-49" value="&lt;font style=&quot;font-size: 23px;&quot;&gt;GIT&lt;br&gt;(Global Information Tracker)&lt;/font&gt;" style="text;html=1;strokeColor=none;fillColor=none;align=center;verticalAlign=middle;whiteSpace=wrap;rounded=0;" parent="1" vertex="1">
          <mxGeometry x="45.19" y="20" width="290" height="90" as="geometry" />
        </mxCell>
        <mxCell id="dikV59hCr1-30PdfAIN_-50" value="" style="sketch=0;outlineConnect=0;fontColor=#232F3E;gradientColor=none;fillColor=#232F3D;strokeColor=none;dashed=0;verticalLabelPosition=bottom;verticalAlign=top;align=center;html=1;fontSize=12;fontStyle=0;aspect=fixed;pointerEvents=1;shape=mxgraph.aws4.source_code;" parent="1" vertex="1">
          <mxGeometry x="540" y="100" width="73.08" height="100" as="geometry" />
        </mxCell>
        <mxCell id="dikV59hCr1-30PdfAIN_-51" value="" style="endArrow=classic;html=1;rounded=0;" parent="1" source="dikV59hCr1-30PdfAIN_-1" target="dikV59hCr1-30PdfAIN_-50" edge="1">
          <mxGeometry width="50" height="50" relative="1" as="geometry">
            <mxPoint x="350" y="370" as="sourcePoint" />
            <mxPoint x="400" y="320" as="targetPoint" />
          </mxGeometry>
        </mxCell>
        <mxCell id="dikV59hCr1-30PdfAIN_-52" value="&lt;font style=&quot;font-size: 14px;&quot;&gt;fork&lt;/font&gt;" style="text;html=1;strokeColor=none;fillColor=none;align=center;verticalAlign=middle;whiteSpace=wrap;rounded=0;" parent="1" vertex="1">
          <mxGeometry x="480" y="90" width="60" height="30" as="geometry" />
        </mxCell>
        <mxCell id="dikV59hCr1-30PdfAIN_-53" value="" style="endArrow=classic;html=1;rounded=0;" parent="1" source="dikV59hCr1-30PdfAIN_-11" target="dikV59hCr1-30PdfAIN_-7" edge="1">
          <mxGeometry width="50" height="50" relative="1" as="geometry">
            <mxPoint x="230" y="160" as="sourcePoint" />
            <mxPoint x="300" y="190" as="targetPoint" />
          </mxGeometry>
        </mxCell>
        <mxCell id="dikV59hCr1-30PdfAIN_-55" value="git clone" style="text;html=1;strokeColor=none;fillColor=none;align=center;verticalAlign=middle;whiteSpace=wrap;rounded=0;" parent="1" vertex="1">
          <mxGeometry x="210" y="160" width="60" height="30" as="geometry" />
        </mxCell>
        <mxCell id="dikV59hCr1-30PdfAIN_-56" value="" style="curved=1;endArrow=classic;html=1;rounded=0;" parent="1" edge="1">
          <mxGeometry width="50" height="50" relative="1" as="geometry">
            <mxPoint x="265.19" y="460" as="sourcePoint" />
            <mxPoint x="265.19" y="480" as="targetPoint" />
            <Array as="points">
              <mxPoint x="285.19" y="460" />
              <mxPoint x="285.19" y="480" />
              <mxPoint x="265.19" y="480" />
            </Array>
          </mxGeometry>
        </mxCell>
        <mxCell id="dikV59hCr1-30PdfAIN_-58" value="" style="sketch=0;outlineConnect=0;fontColor=#232F3E;gradientColor=none;fillColor=#232F3D;strokeColor=none;dashed=0;verticalLabelPosition=bottom;verticalAlign=top;align=center;html=1;fontSize=12;fontStyle=0;aspect=fixed;pointerEvents=1;shape=mxgraph.aws4.source_code;" parent="1" vertex="1">
          <mxGeometry x="240" y="473" width="21.92" height="30" as="geometry" />
        </mxCell>
        <mxCell id="dikV59hCr1-30PdfAIN_-59" value="git commit" style="text;html=1;strokeColor=none;fillColor=none;align=center;verticalAlign=middle;whiteSpace=wrap;rounded=0;" parent="1" vertex="1">
          <mxGeometry x="276.19" y="438" width="60" height="30" as="geometry" />
        </mxCell>
        <mxCell id="dikV59hCr1-30PdfAIN_-60" value="" style="endArrow=none;html=1;rounded=0;endSize=0;startSize=0;strokeWidth=1;endFill=0;" parent="1" source="dikV59hCr1-30PdfAIN_-5" target="dikV59hCr1-30PdfAIN_-38" edge="1">
          <mxGeometry width="50" height="50" relative="1" as="geometry">
            <mxPoint x="422" y="394" as="sourcePoint" />
            <mxPoint x="396" y="263" as="targetPoint" />
          </mxGeometry>
        </mxCell>
        <mxCell id="dikV59hCr1-30PdfAIN_-38" value="git push" style="text;html=1;strokeColor=none;fillColor=none;align=center;verticalAlign=middle;whiteSpace=wrap;rounded=0;" parent="1" vertex="1">
          <mxGeometry x="370" y="280" width="60" height="30" as="geometry" />
        </mxCell>
        <mxCell id="dikV59hCr1-30PdfAIN_-61" value="git merge" style="text;html=1;strokeColor=none;fillColor=none;align=center;verticalAlign=middle;whiteSpace=wrap;rounded=0;" parent="1" vertex="1">
          <mxGeometry x="333.19" y="335" width="60" height="30" as="geometry" />
        </mxCell>
        <mxCell id="dikV59hCr1-30PdfAIN_-62" value="" style="endArrow=classic;html=1;rounded=0;" parent="1" source="dikV59hCr1-30PdfAIN_-5" target="dikV59hCr1-30PdfAIN_-16" edge="1">
          <mxGeometry width="50" height="50" relative="1" as="geometry">
            <mxPoint x="374.69" y="389" as="sourcePoint" />
            <mxPoint x="355.69" y="305" as="targetPoint" />
          </mxGeometry>
        </mxCell>
        <mxCell id="dikV59hCr1-30PdfAIN_-64" value="git pull" style="text;html=1;strokeColor=none;fillColor=none;align=center;verticalAlign=middle;whiteSpace=wrap;rounded=0;" parent="1" vertex="1">
          <mxGeometry x="193" y="240" width="60" height="30" as="geometry" />
        </mxCell>
        <mxCell id="dikV59hCr1-30PdfAIN_-65" value="" style="endArrow=classic;html=1;rounded=0;" parent="1" source="dikV59hCr1-30PdfAIN_-16" target="dikV59hCr1-30PdfAIN_-7" edge="1">
          <mxGeometry width="50" height="50" relative="1" as="geometry">
            <mxPoint x="250" y="390" as="sourcePoint" />
            <mxPoint x="300" y="340" as="targetPoint" />
          </mxGeometry>
        </mxCell>
        <mxCell id="dikV59hCr1-30PdfAIN_-66" value="" style="endArrow=classic;html=1;rounded=0;" parent="1" source="dikV59hCr1-30PdfAIN_-5" target="dikV59hCr1-30PdfAIN_-50" edge="1">
          <mxGeometry width="50" height="50" relative="1" as="geometry">
            <mxPoint x="250" y="390" as="sourcePoint" />
            <mxPoint x="610" y="210" as="targetPoint" />
          </mxGeometry>
        </mxCell>
        <mxCell id="dikV59hCr1-30PdfAIN_-67" value="git push" style="text;html=1;strokeColor=none;fillColor=none;align=center;verticalAlign=middle;whiteSpace=wrap;rounded=0;" parent="1" vertex="1">
          <mxGeometry x="470" y="333" width="60" height="30" as="geometry" />
        </mxCell>
        <mxCell id="dikV59hCr1-30PdfAIN_-68" value="" style="sketch=0;outlineConnect=0;fontColor=#232F3E;gradientColor=none;fillColor=#232F3D;strokeColor=none;dashed=0;verticalLabelPosition=bottom;verticalAlign=top;align=center;html=1;fontSize=12;fontStyle=0;aspect=fixed;pointerEvents=1;shape=mxgraph.aws4.source_code;" parent="1" vertex="1">
          <mxGeometry x="561.54" y="215" width="21.92" height="30" as="geometry" />
        </mxCell>
        <mxCell id="dikV59hCr1-30PdfAIN_-69" value="" style="sketch=0;outlineConnect=0;fontColor=#232F3E;gradientColor=none;fillColor=#232F3D;strokeColor=none;dashed=0;verticalLabelPosition=bottom;verticalAlign=top;align=center;html=1;fontSize=12;fontStyle=0;aspect=fixed;pointerEvents=1;shape=mxgraph.aws4.source_code;" parent="1" vertex="1">
          <mxGeometry x="561.54" y="255" width="21.92" height="30" as="geometry" />
        </mxCell>
        <mxCell id="dikV59hCr1-30PdfAIN_-70" value="" style="endArrow=classic;html=1;rounded=0;endSize=2;" parent="1" source="dikV59hCr1-30PdfAIN_-68" target="dikV59hCr1-30PdfAIN_-69" edge="1">
          <mxGeometry width="50" height="50" relative="1" as="geometry">
            <mxPoint x="450" y="230" as="sourcePoint" />
            <mxPoint x="402" y="243" as="targetPoint" />
          </mxGeometry>
        </mxCell>
      </root>
    </mxGraphModel>
  </diagram>
</mxfile>
